<?xml version="1.0" standalone="no"?>
<!DOCTYPE svg PUBLIC "-//W3C//DTD SVG 20010904//EN"
        "http://www.w3.org/TR/2001/REC-SVG-20010904/DTD/svg10.dtd">
<svg version="1.0" xmlns="http://www.w3.org/2000/svg"
     width="400.000000pt" height="300.000000pt" viewBox="0 0 400.000000 300.000000"
     preserveAspectRatio="xMidYMid meet">

    <g transform="translate(0.000000,300.000000) scale(0.100000,-0.100000)"
       fill="#000000" stroke="none">
        <path d="M2376 1927 c-15 -11 -245 -642 -246 -674 0 -20 84 -16 108 5 13 11
54 115 112 282 51 146 98 268 104 272 6 4 32 8 57 8 l46 0 20 53 c12 28 19 55
16 60 -8 13 -198 8 -217 -6z"/>
        <path d="M1407 1743 c-6 -10 91 -282 106 -301 9 -11 58 -13 231 -12 279 2 254
5 248 -25 -2 -14 -8 -27 -12 -30 -4 -2 -102 -5 -218 -5 -117 -1 -214 -5 -217
-10 -8 -13 24 -94 42 -107 12 -10 76 -13 233 -13 196 0 218 2 233 18 15 16
107 268 107 292 0 6 -104 10 -285 10 -278 0 -285 0 -295 21 -26 48 -22 49 307
51 l307 3 18 48 c10 27 16 53 13 58 -7 11 -812 13 -818 2z"/>
        <path d="M1780 1160 c-11 -11 -20 -29 -20 -40 0 -22 33 -60 53 -60 27 0 57 31
57 60 0 18 -8 34 -22 44 -30 21 -44 20 -68 -4z"/>
        <path d="M2113 1168 c-42 -20 -38 -79 7 -98 69 -28 112 68 44 98 -14 7 -26 12
-27 11 -1 0 -12 -5 -24 -11z"/>
    </g>
</svg>
